<svg xmlns="http://www.w3.org/2000/svg" width="49.61" height="41.11" viewBox="0 0 49.61 41.11"><g id="Layer_2" data-name="Layer 2"><g id="Capa_1" data-name="Capa 1"><path d="M24.8,41.11c-5.07,0-10.12-.08-15-.25l-1.19,0-.23-1.16A201.53,201.53,0,0,1,5.19,17.74,10.1,10.1,0,0,1,.24,11.4,10,10,0,0,1,1.8,3.58,9.3,9.3,0,0,1,9.62,0a12.28,12.28,0,0,1,4,.66,32.29,32.29,0,0,0,11.19,2A32.35,32.35,0,0,0,36,.66,12.23,12.23,0,0,1,40,0a9.33,9.33,0,0,1,7.82,3.58,10,10,0,0,1,1.55,7.82,10.08,10.08,0,0,1-4.94,6.34,201.73,201.73,0,0,1-3.19,21.92L41,40.82l-1.19,0c-4.89.17-9.94.25-15,.25m-13.72-3.2c9,.27,18.48.27,27.44,0a191.88,191.88,0,0,0,3-21.19l.06-.82.73-.39a7.53,7.53,0,0,0,4.17-4.79,7,7,0,0,0-1.08-5.4A6.4,6.4,0,0,0,40,3a9.15,9.15,0,0,0-3,.49A35.38,35.38,0,0,1,24.8,5.67,35.46,35.46,0,0,1,12.6,3.49a9.09,9.09,0,0,0-3-.49A6.4,6.4,0,0,0,4.24,5.32a6.94,6.94,0,0,0-1.08,5.4,7.51,7.51,0,0,0,4.17,4.79l.72.39.07.82a192.33,192.33,0,0,0,3,21.19" style="fill:#c59f61"/></g></g></svg>