<svg xmlns="http://www.w3.org/2000/svg" width="118.05" height="16.9" viewBox="0 0 118.05 16.9"><g id="Layer_2" data-name="Layer 2"><g id="Capa_1" data-name="Capa 1"><path d="M112.22,2.62c-5.33,0-6,3.55-10.6,3.55A18.46,18.46,0,0,0,99.76,0H18.29a18.69,18.69,0,0,0-1.86,6.17c-4.55,0-5.26-3.55-10.6-3.55a5.83,5.83,0,0,0,0,11.66c5.34,0,6.05-3.56,10.6-3.56a18.45,18.45,0,0,0,1.86,6.18H99.76a18.45,18.45,0,0,0,1.86-6.18c4.55,0,5.27,3.56,10.6,3.56a5.83,5.83,0,0,0,0-11.66Z" style="fill:#ffff"/></g></g></svg>