<svg xmlns="http://www.w3.org/2000/svg" width="117.19" height="19.23" viewBox="0 0 117.19 19.23"><g id="Layer_2" data-name="Layer 2"><g id="Capa_1" data-name="Capa 1"><path d="M85.09,19.23s32.1,0,32.1-9.61S85.09,0,85.09,0h-53S0,0,0,9.62s32.1,9.61,32.1,9.61h53ZM91,4.82A14.87,14.87,0,0,1,96.82,7.3a44.08,44.08,0,0,1,4.5,3.67,21.29,21.29,0,0,0,4.6,3.29,8.71,8.71,0,0,1-6.23-.71,36,36,0,0,1-5-3.05A38,38,0,0,0,90.1,7.72a41.36,41.36,0,0,0-5.31-2.11A10.28,10.28,0,0,1,91,4.82ZM26.17,13.94a32.88,32.88,0,0,1-5.1-3,44.19,44.19,0,0,0-4.51-2.81,48.3,48.3,0,0,0-5.29-2.26,10,10,0,0,1,6.29-.93,14.46,14.46,0,0,1,5.92,2.47A40,40,0,0,1,28,11.09a22.9,22.9,0,0,0,4.54,3.44A8.62,8.62,0,0,1,26.17,13.94Zm19.33.22a45.15,45.15,0,0,1-6-3.66A40.34,40.34,0,0,0,34,7.2a43.09,43.09,0,0,0-6.37-2.38A12.42,12.42,0,0,1,35,4a18.08,18.08,0,0,1,6.9,3,61.67,61.67,0,0,1,5.38,4.36,24.26,24.26,0,0,0,5.56,3.82A10.55,10.55,0,0,1,45.5,14.16Zm18.37,0a43.89,43.89,0,0,1-6-3.66,41.6,41.6,0,0,0-5.49-3.3A43.23,43.23,0,0,0,46,4.82,12.46,12.46,0,0,1,53.39,4a18,18,0,0,1,6.89,3,60.21,60.21,0,0,1,5.38,4.36,24.33,24.33,0,0,0,5.57,3.82A10.55,10.55,0,0,1,63.87,14.16Zm18.36,0a45.15,45.15,0,0,1-6-3.66,40.86,40.86,0,0,0-5.48-3.3,43.66,43.66,0,0,0-6.38-2.38A12.42,12.42,0,0,1,71.75,4a18.08,18.08,0,0,1,6.9,3A61.67,61.67,0,0,1,84,11.32a24.11,24.11,0,0,0,5.57,3.82A10.57,10.57,0,0,1,82.23,14.16Z" style="fill:#ffff"/></g></g></svg>