<svg xmlns="http://www.w3.org/2000/svg" width="87.64" height="32" viewBox="0 0 87.64 32"><g id="Layer_2" data-name="Layer 2"><g id="Capa_1" data-name="Capa 1"><path d="M83.14,24.72a6,6,0,0,0-1,.09,3.37,3.37,0,0,0,2-3.83c-.51-2-2.91-3.22-5.34-2.81a6.18,6.18,0,0,0-.92.25,3.15,3.15,0,0,0,1-4.09c-1-1.84-3.68-2.66-5.95-1.85a5,5,0,0,0-.84.4,3.06,3.06,0,0,0-.07-4.17,5.23,5.23,0,0,0-6.29-.81,4.47,4.47,0,0,0-.72.53A3.16,3.16,0,0,0,64,4.36a5.31,5.31,0,0,0-6.37.27,3.73,3.73,0,0,0-.56.64,3.43,3.43,0,0,0-2.17-3.8A5.13,5.13,0,0,0,48.7,2.81a2.87,2.87,0,0,0-.39.73,3.42,3.42,0,0,0-.2-1C47.34.6,44.8-.44,42.43.18a3.83,3.83,0,0,0-3.1,3.34A3.26,3.26,0,0,0,39,2.81a5.15,5.15,0,0,0-6.16-1.34,3.44,3.44,0,0,0-2.17,3.8,3.34,3.34,0,0,0-.56-.64,5.31,5.31,0,0,0-6.37-.27,3.17,3.17,0,0,0-1.14,4.07,4.37,4.37,0,0,0-.71-.53,5.24,5.24,0,0,0-6.3.81,3.07,3.07,0,0,0-.07,4.17,4.91,4.91,0,0,0-.83-.4c-2.28-.81-4.94,0-6,1.85a3.13,3.13,0,0,0,1,4.09,6.31,6.31,0,0,0-.93-.25C6.34,17.76,4,19,3.43,21a3.37,3.37,0,0,0,2,3.83,6,6,0,0,0-1-.09C2,24.72,0,26.35,0,28.36S2,32,4.51,32H83.14c2.49,0,4.5-1.63,4.5-3.64S85.63,24.72,83.14,24.72Zm-8.52,2.44a.54.54,0,0,1-.21.05A.44.44,0,0,1,74,27,33.2,33.2,0,0,0,61.33,15.5h0c-.34-.18-.69-.34-1-.5-2.9,3.82-4.21,9.68-4.23,9.74a.43.43,0,0,1-.47.34.44.44,0,0,1-.4-.43c0-5.61,1.31-9.1,2.26-10.86a36.27,36.27,0,0,0-7.29-1.92,33.88,33.88,0,0,0-6.69,12.88.44.44,0,0,1-.49.33.43.43,0,0,1-.38-.45A31.9,31.9,0,0,1,46,11.47c-.5,0-1,0-1.5,0a35.17,35.17,0,0,0-7.55.76,40.19,40.19,0,0,0-6.71,12.56.43.43,0,0,1-.49.31.44.44,0,0,1-.37-.45c0-.29.41-6.71,2.91-11.13a35.72,35.72,0,0,0-4.66,2A33.19,33.19,0,0,0,14.89,27a.46.46,0,0,1-.58.15.43.43,0,0,1-.19-.56A29.77,29.77,0,0,1,26.37,13.47a36.42,36.42,0,0,1,36.18,0A29.85,29.85,0,0,1,74.81,26.6.43.43,0,0,1,74.62,27.16Z" style="fill:#ffff"/></g></g></svg>