<svg xmlns="http://www.w3.org/2000/svg" width="53.78" height="43.83" viewBox="0 0 53.78 43.83"><g id="Layer_2" data-name="Layer 2"><g id="Capa_1" data-name="Capa 1"><path d="M37,11.93a2.3,2.3,0,1,0,2.3,2.3A2.3,2.3,0,0,0,37,11.93Z" style="fill:#c59f61"/><path d="M26.84,14.48a9.82,9.82,0,1,0,9.82,9.82A9.83,9.83,0,0,0,26.84,14.48Zm0,16A6.2,6.2,0,1,1,33,24.3,6.21,6.21,0,0,1,26.84,30.5Z" style="fill:#c59f61"/><path d="M10.83,42.23c10.49.32,21.63.32,32.12,0a223,223,0,0,0,3.48-24.8l.07-1,.86-.46c2.69-1.43,4.33-3.32,4.87-5.61A8.15,8.15,0,0,0,51,4.08c-1.23-1.73-3.53-2.72-6.3-2.72a10.58,10.58,0,0,0-3.5.58A41.51,41.51,0,0,1,26.89,4.49,41.51,41.51,0,0,1,12.61,1.94a10.58,10.58,0,0,0-3.5-.58c-2.77,0-5.07,1-6.3,2.72A8.2,8.2,0,0,0,1.55,10.4c.54,2.29,2.18,4.18,4.88,5.61l.85.46.07,1A225.36,225.36,0,0,0,10.83,42.23Z" style="fill:none;stroke:#c59f61;stroke-linecap:round;stroke-linejoin:round;stroke-width:2.72098588943481px"/></g></g></svg>