<svg xmlns="http://www.w3.org/2000/svg" width="113.29" height="31.58" viewBox="0 0 113.29 31.58"><g id="Layer_2" data-name="Layer 2"><g id="Capa_1" data-name="Capa 1"><path d="M34.53.77c-9.36,1.38,1.83,13.74,6.95,10.13S39.17.09,34.53.77Z" style="fill:#ffff"/><path d="M80.37,19.66c2.4-7.75-12.41-3.83-11.29,1.5S79.18,23.5,80.37,19.66Z" style="fill:#ffff"/><path d="M33.69,14l-.11-.11a3.78,3.78,0,0,0-4-.69,3.25,3.25,0,0,0-2.32,2.67c0,.84.71,1.56,2,2.08a4.54,4.54,0,0,0,5-1.23C34.82,15.9,34.63,15,33.69,14Z" style="fill:#ffff"/><path d="M6.42,15.64l-.11-.11a3.74,3.74,0,0,0-4-.69A3.22,3.22,0,0,0,0,17.51c0,.84.71,1.56,2,2.08a4.53,4.53,0,0,0,5-1.24C7.56,17.51,7.37,16.57,6.42,15.64Z" style="fill:#ffff"/><path d="M113.16,13.43a1,1,0,0,0,0-.14,3.76,3.76,0,0,0-3.07-2.66,3.26,3.26,0,0,0-3.36,1.09c-.41.74-.2,1.7.62,2.8a4.52,4.52,0,0,0,4.93,1.53C113.17,15.62,113.49,14.72,113.16,13.43Z" style="fill:#ffff"/><path d="M32.92,25.63l-.17-.18C30.46,23,28.3,23,27.48,23.15c-1.62.22-2.57,1.37-2.28,2.74.24,1.12,1.29,2.31,3,3.45,2.53,1.64,5.35,1.4,6.08.1C34.84,28.51,34.35,27.2,32.92,25.63Z" style="fill:#ffff"/><path d="M69.75,27.33l-.11-.11a3.78,3.78,0,0,0-4-.69,3.24,3.24,0,0,0-2.31,2.67c0,.84.7,1.56,2,2.08a4.53,4.53,0,0,0,5-1.23C70.89,29.2,70.69,28.26,69.75,27.33Z" style="fill:#ffff"/><path d="M72.44,10.22a2,2,0,0,0-.62-.72,4.33,4.33,0,0,0-3-.47c-2.27.35-4.44,1.74-4.64,3-.11.68.39,1.29,1.48,1.81a7.09,7.09,0,0,0,6.38-1.18A1.86,1.86,0,0,0,72.44,10.22Z" style="fill:#ffff"/><path d="M21.76,6.88a2,2,0,0,0-1.25,2.23,2.1,2.1,0,0,0,.34.9,3.48,3.48,0,0,0,2.23,1.26,6,6,0,0,0,1.13.1c1.37,0,2.75-.42,3.27-1.32.24-.41.48-1.27-.6-2.37A5.48,5.48,0,0,0,21.76,6.88Z" style="fill:#ffff"/><path d="M101,13.8A5.47,5.47,0,0,0,95.84,13a2,2,0,0,0-1.25,2.23,2,2,0,0,0,.34.91,3.45,3.45,0,0,0,2.23,1.26,6.88,6.88,0,0,0,1.13.1c1.36,0,2.75-.43,3.27-1.32C101.8,15.75,102,14.9,101,13.8Z" style="fill:#ffff"/><path d="M52.07,23.57a2.44,2.44,0,0,0-2.57,1.58,2.29,2.29,0,0,0-.19,1.12,3.62,3.62,0,0,0,1.47,2.43A6.11,6.11,0,0,0,54.3,30a2.54,2.54,0,0,0,1.36-.34,2.22,2.22,0,0,0,.82-2.76A5.59,5.59,0,0,0,52.07,23.57Z" style="fill:#ffff"/><path d="M14.87,26.18a5.09,5.09,0,0,0-4.44,1.62,1.63,1.63,0,0,0,.07,2.1h0a1.82,1.82,0,0,0,.63.5,2.29,2.29,0,0,0,1,.22,4.08,4.08,0,0,0,1.26-.22c1.43-.47,3-1.69,2.93-2.84C16.33,27.12,16.07,26.52,14.87,26.18Z" style="fill:#ffff"/><path d="M106.73,25.64a5.26,5.26,0,0,0-4.06-3,1.92,1.92,0,0,0-2,2.07,3.2,3.2,0,0,0,1.3,2A5.83,5.83,0,0,0,105.19,28a2,2,0,0,0,1.07-.26C106.67,27.45,107.08,26.88,106.73,25.64Z" style="fill:#ffff"/><path d="M99.47,2.45a5.34,5.34,0,0,0-4.33,2.62,1.73,1.73,0,0,0,.56,2.16h0a2.08,2.08,0,0,0,.77.39,2.25,2.25,0,0,0,.58.07,4,4,0,0,0,1.83-.54c1.61-.91,2.71-2.52,2.44-3.58C101.15,2.91,100.53,2.54,99.47,2.45Z" style="fill:#ffff"/><path d="M15.77,7.38a7.6,7.6,0,0,0-6.58-4h0A3.41,3.41,0,0,0,6,5.94a3.35,3.35,0,0,0-.1,1.57,5,5,0,0,0,2.36,3.13A8.48,8.48,0,0,0,12.62,12a5.44,5.44,0,0,0,1.09-.11,3.38,3.38,0,0,0,1.37-.61C15.59,10.89,16.67,9.73,15.77,7.38Z" style="fill:#ffff"/><path d="M80.8,1.06A2.09,2.09,0,0,0,80,.62a4,4,0,0,0-2.82.53c-1.92,1-3.36,3-3.1,4.17.14.65.8,1,2,1.15a6.57,6.57,0,0,0,5.3-3.11A1.8,1.8,0,0,0,80.8,1.06Z" style="fill:#ffff"/><path d="M64,21.49a2.74,2.74,0,0,0,.1-1.32c-.26-1.56-1.8-2.75-2.57-3.26-2.69-1.78-6.37-2.37-7.87-1.28-.82.6-.94,1.7-.35,3.26.79,2.1,4.79,4.84,7.79,4.77A2.88,2.88,0,0,0,64,21.49Z" style="fill:#ffff"/><path d="M53.33,12.29a11,11,0,0,0,1.12-.07c4.59-.53,9.3-4,9.7-7.13C64.52,2.18,63.1,1,61.84.44c-3.05-1.26-8,.37-11.08,2.68-2.65,2-3.64,4.26-2.7,6.2A5.45,5.45,0,0,0,53.33,12.29Z" style="fill:#ffff"/><path d="M21.65,16.52a5.4,5.4,0,0,0-5.74-1c-2,.78-3.4,2.44-3.36,4,0,.94.56,2.28,2.91,3.25a5.8,5.8,0,0,0,2.24.43A6.15,6.15,0,0,0,22.59,21c.54-.79,1.15-2.41-.79-4.33Z" style="fill:#ffff"/><path d="M94.3,20.25l-.2-.16C91.29,18,88.21,19.32,87,20c-2.38,1.34-4,3.6-3.82,5.5.08,1.17.79,2.71,3.77,3.44a6,6,0,0,0,1.53.18,8.67,8.67,0,0,0,7-3.78C96.56,23.52,96.13,21.71,94.3,20.25Z" style="fill:#ffff"/><path d="M87.71,15.3a5.19,5.19,0,0,0,3.45-1.06c1.72-1.55,1.32-3,.92-3.75-1-1.93-4.13-3-6.54-3.06s-3.86.81-4.29,2.35a3.6,3.6,0,0,0,1.44,3.91,5.13,5.13,0,0,0,.59.41A8.67,8.67,0,0,0,87.71,15.3Z" style="fill:#ffff"/><path d="M38.15,23.78A5.86,5.86,0,0,0,39.82,25a5.23,5.23,0,0,0,4.22.1c3.32-1.25,5.68-5,4.87-7.69-.74-2.5-2.25-3.29-3.4-3.51-2.77-.52-6,1.72-7.5,4.19C36.69,20.25,36.74,22.32,38.15,23.78Z" style="fill:#ffff"/></g></g></svg>