<svg xmlns="http://www.w3.org/2000/svg" width="60" height="77.45" viewBox="0 0 60 77.45"><g id="Layer_2" data-name="Layer 2"><g id="Layer_1-2" data-name="Layer 1"><path d="M0,7.74A2.65,2.65,0,0,1,2.61,5.06,2.66,2.66,0,0,1,5.23,7.74,2.62,2.62,0,1,1,0,7.74Z" style="fill:#c59f61"/><path d="M15.45,11.37H17V2.06H15.45V0h5.61V2.06H19.29v9.33H23V9.49h2.23v3.94H15.45Z" style="fill:#c59f61"/><path d="M28.37,11.37H30l.43-9.31H28.71V0h3.68l4.12,7.47L40.63,0h3.66V2.06H42.61L43,11.37h1.59v2.06H39.12V11.37h1.62l-.27-6.92-3.84,6.74h-.3L32.49,4.45l-.27,6.92h1.62v2.06H28.37Z" style="fill:#c59f61"/><path d="M54.77,7.74a2.62,2.62,0,1,1,5.23,0,2.62,2.62,0,1,1-5.23,0Z" style="fill:#c59f61"/><path d="M21.36,32.65a13.17,13.17,0,0,1,9.36,3.89l1.33,1.32,1.31-1.3A13.22,13.22,0,1,1,52,55.26L33,74.25a1.34,1.34,0,0,1-1.92,0l-19-19a13.21,13.21,0,0,1,9.32-22.57m0-2.81A16,16,0,0,0,10.06,57.2l19,19a4.16,4.16,0,0,0,5.9,0L54,57.25a16,16,0,0,0-22-23.32,15.94,15.94,0,0,0-10.69-4.09Z" style="fill:#c59f61"/><path d="M27,41.11c0-.18.19-.6.58-.63h0a.49.49,0,0,1,.52.32,1.45,1.45,0,0,1-.28,1.37.67.67,0,0,1-.39.18.41.41,0,0,1-.18-.05A1.2,1.2,0,0,1,27,41.11Z" style="fill:#c59f61"/><path d="M21.07,36.61c.05-.23.25-.37.58-.42a1.47,1.47,0,0,1,1.34.89.66.66,0,0,1-.21.83.61.61,0,0,1-.36.11,1.28,1.28,0,0,1-.6-.2A1.43,1.43,0,0,1,21.07,36.61Z" style="fill:#c59f61"/><path d="M13.7,47.93h0a.58.58,0,0,1-.35.11,1.29,1.29,0,0,1-.61-.2A1.4,1.4,0,0,1,12,46.62c0-.22.24-.36.57-.42a1.46,1.46,0,0,1,1.34.9A.65.65,0,0,1,13.7,47.93Z" style="fill:#c59f61"/><path d="M14.35,40.72a.47.47,0,0,1-.25-.52c.12-.47,1.09-1,1.8-1H16c.28,0,.46.08.53.23a.75.75,0,0,1-.31.91,2.34,2.34,0,0,1-1.41.52A.93.93,0,0,1,14.35,40.72Z" style="fill:#c59f61"/><path d="M17,55h0a.6.6,0,0,1-.49.25.89.89,0,0,1-.31-.06,1.81,1.81,0,0,1-1.05-1.55c0-.19.14-.43.55-.5l.2,0a1.38,1.38,0,0,1,1.15.69A1,1,0,0,1,17,55Z" style="fill:#c59f61"/><path d="M20,43.52a.57.57,0,0,1,.55-.5l.2,0a1.4,1.4,0,0,1,1.15.68,1,1,0,0,1-.05,1.2.6.6,0,0,1-.49.25.73.73,0,0,1-.31-.07A1.79,1.79,0,0,1,20,43.52Z" style="fill:#c59f61"/><path d="M20.51,50c0-.22.24-.37.57-.42a1.48,1.48,0,0,1,1.34.9.65.65,0,0,1-.21.83.58.58,0,0,1-.35.11,1.29,1.29,0,0,1-.61-.2A1.41,1.41,0,0,1,20.51,50Z" style="fill:#c59f61"/><path d="M23.2,60.65a.58.58,0,0,1-.35.11,1.24,1.24,0,0,1-.6-.2,1.39,1.39,0,0,1-.75-1.21c.05-.23.24-.37.58-.42a1.45,1.45,0,0,1,1.33.89A.64.64,0,0,1,23.2,60.65Z" style="fill:#c59f61"/><path d="M27.59,65.27a1,1,0,0,1-.36.07.42.42,0,0,1-.36-.15,1,1,0,0,1,1-1.3h0c.36.11.43.31.43.47A1.16,1.16,0,0,1,27.59,65.27Z" style="fill:#c59f61"/><path d="M28.43,55.83a.62.62,0,0,1-.38.18.37.37,0,0,1-.18,0,1.2,1.2,0,0,1-.25-1.19c0-.18.19-.6.58-.63a.47.47,0,0,1,.52.32A1.43,1.43,0,0,1,28.43,55.83Z" style="fill:#c59f61"/><path d="M30.4,49a.58.58,0,0,1-.35.11,1.18,1.18,0,0,1-.61-.21,1.38,1.38,0,0,1-.74-1.21q.07-.34.57-.42a1.49,1.49,0,0,1,1.34.89A.66.66,0,0,1,30.4,49Z" style="fill:#c59f61"/><path d="M31.77,59.91a.54.54,0,0,1,.64-.22,2.13,2.13,0,0,1,1.37,1.36h0a.75.75,0,0,1-.42.71.56.56,0,0,1-.31.09,1.19,1.19,0,0,1-.81-.42C31.81,61,31.51,60.31,31.77,59.91Z" style="fill:#c59f61"/><path d="M33.59,69.27a.62.62,0,0,1-.39.18.28.28,0,0,1-.17,0c-.26-.15-.37-.7-.25-1.19,0-.17.19-.6.58-.62a.48.48,0,0,1,.52.31A1.42,1.42,0,0,1,33.59,69.27Z" style="fill:#c59f61"/><path d="M35.56,55.87a1,1,0,0,1-.36.07.42.42,0,0,1-.36-.15,1,1,0,0,1,1-1.3c.36.11.43.32.43.47A1.15,1.15,0,0,1,35.56,55.87Z" style="fill:#c59f61"/><path d="M36.13,42.46c-.42,0-.55-.18-.58-.35-.1-.57.74-1.59,1.43-1.73h.15c.22,0,.5.11.62.63a.84.84,0,0,1-.16.68,1.9,1.9,0,0,1-1.18.76A1.42,1.42,0,0,1,36.13,42.46Z" style="fill:#c59f61"/><path d="M37.14,48.8a.51.51,0,0,1-.39-.13.49.49,0,0,1,0-.5,2.64,2.64,0,0,1,1.82-.88h0a.34.34,0,0,1,.29.34c0,.52-1,1-1.41,1.13A1.2,1.2,0,0,1,37.14,48.8Z" style="fill:#c59f61"/><path d="M40.37,63.09a2,2,0,0,1-1.18.75l-.28,0c-.42,0-.55-.19-.58-.36-.1-.57.74-1.58,1.43-1.72a.39.39,0,0,1,.15,0c.21,0,.49.11.62.63A.87.87,0,0,1,40.37,63.09Z" style="fill:#c59f61"/><path d="M43,38.3c-.1-.57.74-1.58,1.43-1.72a.39.39,0,0,1,.15,0c.21,0,.49.11.62.63a.87.87,0,0,1-.16.69,2,2,0,0,1-1.18.75l-.28,0C43.13,38.66,43,38.47,43,38.3Z" style="fill:#c59f61"/><path d="M43.84,51.23a.63.63,0,0,1,.75,0,.68.68,0,0,1,.32.59,1.58,1.58,0,0,1-.69,1.13,1.11,1.11,0,0,1-.58.23l-.15,0c-.15-.07-.26-.26-.31-.58A1.5,1.5,0,0,1,43.84,51.23Z" style="fill:#c59f61"/><path d="M44.79,58.81a.58.58,0,0,1-.35.11,1.11,1.11,0,0,1-.6-.21,1.38,1.38,0,0,1-.75-1.21q.07-.34.57-.42A1.47,1.47,0,0,1,45,58,.65.65,0,0,1,44.79,58.81Z" style="fill:#c59f61"/><path d="M45.89,44.88h0a.6.6,0,0,1-.49.25.73.73,0,0,1-.31-.07A1.79,1.79,0,0,1,44,43.52a.56.56,0,0,1,.55-.5l.2,0a1.4,1.4,0,0,1,1.15.68A1.05,1.05,0,0,1,45.89,44.88Z" style="fill:#c59f61"/><path d="M49.58,41.32a1.45,1.45,0,0,1-.13-.29.47.47,0,0,1,0-.41c.07-.12.24-.17.47-.14a2.74,2.74,0,0,1,1.34,1.37.5.5,0,0,1,0,.12.32.32,0,0,1-.24.37C50.57,42.5,49.77,41.64,49.58,41.32Z" style="fill:#c59f61"/><path d="M51.91,50.75a.72.72,0,0,1-.36.11.64.64,0,0,1-.39-.15,2.41,2.41,0,0,1-.71-2.14c.07-.27.22-.34.34-.35h.05c.51,0,1,.68,1.27,1.31S52.22,50.55,51.91,50.75Z" style="fill:#c59f61"/></g></g></svg>