<svg xmlns="http://www.w3.org/2000/svg" width="101.1" height="28.37" viewBox="0 0 101.1 28.37"><g id="Layer_2" data-name="Layer 2"><g id="Capa_1" data-name="Capa 1"><path d="M73.83,26.24a9.66,9.66,0,0,1-.07-1.2,10.53,10.53,0,0,1,6.51-9.75H74.7a1.3,1.3,0,0,0-1.42,1.44,11.64,11.64,0,0,1-13,11.56,1,1,0,0,1-.83-.83,11.73,11.73,0,0,1,3.34-9.55,11.45,11.45,0,0,1,4-2.62H60.75a1.1,1.1,0,0,0-1.17,1.21,10.54,10.54,0,0,1-10.8,10.55H21.59a.56.56,0,0,1,0-1.11H44.07c2,0,2.73-.8,3.09-2.8a.37.37,0,0,0,0-.09l.09-.39a3.59,3.59,0,0,0,.08-.35A10.45,10.45,0,0,1,49.68,18a.86.86,0,0,1,.13-.14c.09-.11.18-.22.27-.31l.14-.13a10.88,10.88,0,0,1,3.15-2.15H47.54c-.39,0-.55.32-.55.67a8.1,8.1,0,0,1-7.48,8.1.51.51,0,0,1-.17,0H12.22a.56.56,0,0,1-.56-.55.55.55,0,0,1,.56-.55H35c1.52,0,2.11-.36,2.39-1.9a6,6,0,0,1,.19-.79c0-.09.05-.18.08-.27l.06-.17a8,8,0,0,1,1.57-2.68l.21-.23c.05-.05.09-.11.15-.16l.07-.07a8.58,8.58,0,0,1,1.92-1.43H39a1.6,1.6,0,0,0-1.73.94h0a6.41,6.41,0,0,1-5.7,3A24.1,24.1,0,0,1,21.39,16.5c-3.13-1.54-4.43-1.74-6-1.76H.55a.56.56,0,0,1,0-1.11h14.8c1.64,0,2.94-.23,6.2-1.83h0a24,24,0,0,1,10-2.68,6.45,6.45,0,0,1,5.7,3h0a1.6,1.6,0,0,0,1.73.94h2.68a8.31,8.31,0,0,1-1.92-1.44.19.19,0,0,1-.07-.06c-.06-.05-.1-.11-.15-.16s-.15-.16-.21-.24a7.94,7.94,0,0,1-1.57-2.67l-.06-.17c0-.09-.05-.18-.08-.27a6,6,0,0,1-.19-.79c-.28-1.54-.87-1.9-2.39-1.9H12.22a.55.55,0,1,1,0-1.1H39.34a.51.51,0,0,1,.17,0A8.08,8.08,0,0,1,47,12.4c0,.36.16.68.55.68h5.83a10.71,10.71,0,0,1-3.15-2.16l-.14-.12-.27-.31a.86.86,0,0,1-.13-.14,10.52,10.52,0,0,1-2.33-4.3,3.59,3.59,0,0,0-.08-.35l-.09-.39a.29.29,0,0,0,0-.09c-.36-2-1.12-2.81-3.09-2.81H21.59a.55.55,0,0,1,0-1.1H48.78a10.54,10.54,0,0,1,10.8,10.55,1.1,1.1,0,0,0,1.17,1.21h6.11a11.45,11.45,0,0,1-4-2.62,11.56,11.56,0,0,1-3.41-8.23A11.85,11.85,0,0,1,59.49.9a1,1,0,0,1,.83-.82,11.64,11.64,0,0,1,13,11.55,1.31,1.31,0,0,0,1.42,1.45h5.57a10.41,10.41,0,0,1-3.42-2.28,10.47,10.47,0,0,1-3.09-7.47,9.55,9.55,0,0,1,.07-1.2.85.85,0,0,1,.75-.76,10.58,10.58,0,0,1,11.77,10.5,1.16,1.16,0,0,0,1.11,1.21H100a1.11,1.11,0,1,1,0,2.21H87.46a1.16,1.16,0,0,0-1.11,1.21A10.57,10.57,0,0,1,74.58,27,.83.83,0,0,1,73.83,26.24Z" style="fill:#ffff"/></g></g></svg>