<svg xmlns="http://www.w3.org/2000/svg" width="101.12" height="29.06" viewBox="0 0 101.12 29.06"><g id="Layer_2" data-name="Layer 2"><g id="Capa_1" data-name="Capa 1"><path d="M2,17c1.05,2.34,3.16,5.54,7.1,6.37h0c3.48.72,13.89-1.41,25-3.66,4.84-1,9.8-2,14.4-2.81-7.74.57-16.94,1.23-24.48,1.73-2.71.19-5.24.35-7.42.49s-3.9.23-5.15.28h0C6.55,19.64,3.66,18.32,2,17Zm58.06-5.95c13.62.18,25.6-1.21,32.72-1.21,9-.5,8.31,4.67,8.31,4.67s.72,5.18-8.31,4.67c-7.12,0-19.1-1.39-32.72-1.2a1.13,1.13,0,0,1-.31-.28c-8.63.94-17.2,3.7-25.14,6.26-8.32,2.68-16,5.14-22.37,5.08h-.13C-.73,28.86,0,15.34,0,14.53S-.73.2,12.12,0h.12C18.65-.06,26.3,2.4,34.62,5.09c7.94,2.55,16.52,5.31,25.15,6.24a.94.94,0,0,1,.3-.26Zm-.62,1.33v.15C52.87,12,43.37,10.08,34.31,8.24,23.12,6,12.61,3.82,8.9,4.58h0a11.3,11.3,0,0,0-7.56,6.35C1.92,7,4.18,1.23,12.14,1.1h.12c6.23-.05,13.78,2.38,22,5,7.94,2.56,16.48,5.31,25.17,6.27Zm0,4.09v.16c-8.68,1-17.24,3.72-25.17,6.28-8.23,2.65-15.8,5.08-22,5h-.12c-8-.11-10.21-5.9-10.82-9.83a11.21,11.21,0,0,0,7.56,6.35h0c3.7.77,14.22-1.38,25.41-3.65C43.37,19,52.87,17,59.44,16.49Zm-1-2.51H1.58c1-1.25,3.65-3.52,9.77-3.25h0c1.21,0,3,.15,5.14.29s4.63.29,7.41.48c11.23.75,26.25,1.85,34.5,2.48ZM1.58,15.08H58.46c-8.25.62-23.28,1.73-34.52,2.48l-7.41.49c-2.16.13-3.93.22-5.14.28h0c-6.12.27-8.78-2-9.77-3.25ZM2,12c1.05-2.35,3.16-5.55,7.1-6.38h0C12.62,5,23,7.06,34.09,9.32c4.84,1,9.8,2,14.4,2.81C40.75,11.56,31.55,10.9,24,10.39c-2.71-.18-5.24-.35-7.42-.48s-3.89-.23-5.15-.29h0C6.55,9.41,3.65,10.74,2,12Zm89.17.87c-1.54,0-8.53-.48-9.2,1.62.67,2.1,7.66,1.62,9.2,1.62a1.75,1.75,0,0,0,1.7-1.62A1.75,1.75,0,0,0,91.18,12.91Z" style="fill:#ffff;fill-rule:evenodd"/></g></g></svg>