<svg xmlns="http://www.w3.org/2000/svg" width="391.37" height="171.97" viewBox="0 0 391.37 171.97"><g id="Layer_2" data-name="Layer 2"><g id="Capa_1" data-name="Capa 1"><path d="M269.2,49.28a14.07,14.07,0,0,0-1.8.12c-7.35.88-14.89,6.71-15.53,12-.59,4.88,1.68,6.94,3.69,7.81,4.89,2.12,12.86-.62,17.74-4.5,4.25-3.37,5.82-7.17,4.32-10.42S273.15,49.28,269.2,49.28Z" style="fill:#54351a"/><path d="M58.8,46.69a14,14,0,0,0-1.8.11c-7.34.89-14.88,6.72-15.52,12-.59,4.88,1.68,6.94,3.69,7.81C50,68.72,58,66,62.9,62.1c4.26-3.37,5.83-7.17,4.33-10.42S62.75,46.69,58.8,46.69Z" style="fill:#54351a"/><path d="M226.22,6.26a18.56,18.56,0,0,0-8.89-2.57,11,11,0,0,0-6,1.67c-4.44,2.85-5.71,7.11-3.48,11.71,2.89,6,11.76,11.91,19.4,10.9,7-.94,8.88-4.37,9.37-6.34C237.94,16.13,232.26,9.6,226.22,6.26Z" style="fill:#54351a"/><path d="M19.46,6.26a18.56,18.56,0,0,0-8.89-2.57,11,11,0,0,0-6,1.67C.12,8.21-1.15,12.47,1.07,17.07,4,23.05,12.85,29,20.48,28c7-.94,8.88-4.37,9.36-6.34C31.19,16.13,25.5,9.6,19.46,6.26Z" style="fill:#54351a"/><path d="M329.32,0a15.89,15.89,0,0,0-3.93.53c-7.18,1.87-14.92,8.92-14.54,15.55.36,6.13,4.13,8.08,6.34,8.69,6.22,1.73,14.29-2.49,18.77-7.33C340.08,13,341,8.35,338.52,4.72A10.77,10.77,0,0,0,329.32,0Z" style="fill:#54351a"/><path d="M118.93,0A15.83,15.83,0,0,0,115,.53c-7.18,1.88-14.93,8.92-14.54,15.55.36,6.13,4.13,8.08,6.34,8.69,6.19,1.73,14.3-2.49,18.77-7.34,4.12-4.45,5.05-9.08,2.56-12.71A10.77,10.77,0,0,0,118.93,0Z" style="fill:#54351a"/><path d="M386,45.3a11.08,11.08,0,0,0-4-.77A9.57,9.57,0,0,0,374.73,48c-4.53,5.08-5.19,13.8-1.36,18,3.53,3.83,6.81,3.93,9,3.34,5.2-1.44,8.67-8.22,9-13.94C391.65,50.37,389.69,46.71,386,45.3Z" style="fill:#54351a"/><path d="M163.28,33.6a11.19,11.19,0,0,0-4-.76A9.6,9.6,0,0,0,152,36.3c-4.52,5.07-5.18,13.79-1.36,18,3.53,3.83,6.82,3.93,9,3.34,5.2-1.44,8.66-8.22,9-13.94C169,38.67,167,35,163.28,33.6Z" style="fill:#54351a"/><path d="M329.15,121.31c14.51-2.23-2.85-22.38-10.78-16.5S322,122.43,329.15,121.31Z" style="fill:#54351a"/><path d="M21.91,121.31c14.5-2.23-2.85-22.38-10.79-16.5S14.71,122.43,21.91,121.31Z" style="fill:#54351a"/><path d="M164.1,112c-1.76-2.21-3.58-2.86-5.25-2.51-4,.83-10.79,11.52-4.72,14.22C157.46,125.21,167.79,116.65,164.1,112Z" style="fill:#54351a"/><path d="M56.27,158.7c.07.06.13.13.2.2a6.61,6.61,0,0,0,7.39,1.16c2.56-1.08,4.42-3.31,4.41-5.29,0-1.63-1.23-3-3.55-4-3.38-1.39-7.81.27-9.36,2.63C54.25,155.11,54.57,156.92,56.27,158.7Z" style="fill:#54351a"/><path d="M213.56,171.55a4.09,4.09,0,0,0,1.82.42c2.26,0,4.25-1.78,5.13-2.7,3.06-3.21,4.67-8,3.45-10.22-.67-1.23-2.18-1.64-4.5-1.2-3.11.59-7.8,5.32-8.33,9.35A3.91,3.91,0,0,0,213.56,171.55Z" style="fill:#54351a"/></g></g></svg>